<svg xmlns="http://www.w3.org/2000/svg" version="1.1" xmlns:xlink="http://www.w3.org/1999/xlink" xmlns:svgjs="http://svgjs.dev/svgjs" width="1500" height="471" viewBox="0 0 1500 471"><g transform="matrix(1,0,0,1,0.25491573033696113,0.08200446428568853)"><svg viewBox="0 0 356 112" data-background-color="#dedede" preserveAspectRatio="xMidYMid meet" height="471" width="1500" xmlns="http://www.w3.org/2000/svg" xmlns:xlink="http://www.w3.org/1999/xlink"><g id="tight-bounds" transform="matrix(1,0,0,1,-0.06049999999996203,-0.019499999999993634)"><svg viewBox="0 0 356.12052 112.03880857163776" height="112.03880857163776" width="356.12052"><g><svg viewBox="0 0 356.12052 112.03880857163776" height="112.03880857163776" width="356.12052"><g><svg viewBox="0 0 356.12052 112.03880857163776" height="112.03880857163776" width="356.12052"><g><path d="M0 112.039v-112.039h356.121v112.039z" fill="#000000" stroke="transparent" stroke-width="0" rx="0%" data-fill-palette-color="tertiary"></path><path d="M3.283 108.756v-105.473h349.554v105.473z" fill="#dedede" stroke="transparent" stroke-width="0" rx="0%" data-fill-palette-color="quaternary"></path><path d="M9.85 102.189v-92.339h336.421v92.339z" fill="#000000" stroke="transparent" stroke-width="0" data-fill-palette-color="tertiary"></path></g><g transform="matrix(1,0,0,1,19.69974,19.69974)" id="textblocktransform"><svg viewBox="0 0 316.72104 72.63932857163776" height="72.63932857163776" width="316.72104" id="textblock"><g><svg viewBox="0 0 316.72104 40.836062157996146" height="40.836062157996146" width="316.72104"><g transform="matrix(1,0,0,1,0,0)"><svg width="316.72104" viewBox="-0.24 -37.7 304.07 39.21" height="40.836062157996146" data-palette-color="#dedede"><path d="M28.17-18.7L28.37-18.7Q28.47-18.36 28.76-17.97 29.05-17.58 29.05-17.38L29.05-17.38Q28.66-16.46 28.47-15.94 28.27-15.43 27.83-15.04L27.83-15.04Q27.83-14.89 27.54-14.4 27.25-13.92 26.88-13.35 26.51-12.79 26.15-12.28 25.78-11.77 25.68-11.57L25.68-11.57Q25.44-11.18 25.29-10.82 25.15-10.45 24.95-10.11L24.95-10.11Q24.51-9.33 24.05-8.64 23.58-7.96 23.19-7.13L23.19-7.13Q22.95-6.88 22.75-6.59 22.56-6.3 22.31-6.05L22.31-6.05Q21.73-4.98 20.97-4.05 20.21-3.13 19.58-2L19.58-2Q20.12-1.46 20.12-0.63L20.12-0.63Q20.12-0.2 19.87-0.17 19.63-0.15 19.43-0.05L19.43-0.05Q18.95 0.29 18.55 0.34 18.16 0.39 17.92 0.39L17.92 0.39Q17.38 0.39 16.75 0.37 16.11 0.34 15.67 0.44L15.67 0.44Q15.53 0.49 15.33 0.61 15.14 0.73 15.04 0.73L15.04 0.73Q14.65 0.73 14.48 0.61 14.31 0.49 14.01 0.39L14.01 0.39Q13.62-0.05 13.31-0.54 12.99-1.03 12.65-1.51L12.65-1.51Q12.35-1.86 12.01-2.12 11.67-2.39 11.38-2.78L11.38-2.78Q10.6-3.91 9.79-4.93 8.98-5.96 8.15-6.98L8.15-6.98Q7.76-7.52 7.3-8.01 6.84-8.5 6.45-8.98L6.45-8.98Q6.05-9.52 5.71-10.11 5.37-10.69 4.98-11.23L4.98-11.23Q4.69-11.72 4.15-12.43 3.61-13.13 3.03-13.87 2.44-14.6 1.83-15.26 1.22-15.92 0.78-16.26L0.78-16.26Q0.78-16.6 0.59-16.75 0.39-16.89 0.15-17.09L0.15-17.09Q0.05-17.33-0.1-17.55-0.24-17.77-0.24-18.07L-0.24-18.07Q-0.24-18.41-0.1-18.7L-0.1-18.7Q0-18.9 0.02-19.07 0.05-19.24 0.15-19.43L0.15-19.43Q0.39-20.07 0.85-20.56 1.32-21.04 1.56-21.68L1.56-21.68Q1.61-21.88 1.61-22.05 1.61-22.22 1.71-22.41L1.71-22.41Q1.86-22.75 2.15-23.02 2.44-23.29 2.69-23.63L2.69-23.63Q2.93-24.07 3.17-24.51 3.42-24.95 3.66-25.39L3.66-25.39Q4.35-26.51 5.18-27.56 6.01-28.61 6.74-29.64L6.74-29.64Q7.42-30.62 8.01-31.57 8.59-32.52 9.28-33.5L9.28-33.5Q9.62-33.98 10.06-34.59 10.5-35.21 10.96-35.79 11.43-36.38 11.91-36.89 12.4-37.4 12.89-37.65L12.89-37.65Q13.72-37.74 13.96-37.38 14.21-37.01 14.65-37.01L14.65-37.01Q15.33-36.87 15.58-36.57 15.82-36.28 16.06-36.04L16.06-36.04Q16.7-36.04 17.14-35.79 17.58-35.55 18.02-35.06L18.02-35.06Q17.82-34.52 17.5-34.08 17.19-33.64 16.94-33.15L16.94-33.15Q16.55-33.01 16.38-32.67 16.21-32.32 15.87-32.08L15.87-32.08Q15.33-31.25 14.79-30.44 14.26-29.64 13.72-28.91L13.72-28.91Q13.48-28.61 13.18-28.44 12.89-28.27 12.65-27.93L12.65-27.93Q12.55-27.78 12.5-27.61 12.45-27.44 12.35-27.29L12.35-27.29Q11.77-26.37 11.04-25.49 10.3-24.61 9.77-23.63L9.77-23.63Q9.52-23.29 9.38-22.92 9.23-22.56 9.03-22.22L9.03-22.22Q8.84-21.88 8.47-21.36 8.11-20.85 7.74-20.31 7.37-19.78 7.1-19.24 6.84-18.7 6.84-18.36L6.84-18.36Q6.88-18.12 7.47-17.38 8.06-16.65 8.79-15.82 9.52-14.99 10.18-14.23 10.84-13.48 10.99-13.33L10.99-13.33Q11.08-13.09 11.72-12.28 12.35-11.47 13.16-10.52 13.96-9.57 14.75-8.69 15.53-7.81 15.82-7.42L15.82-7.42 16.21-6.79Q16.31-6.84 16.72-7.47 17.14-8.11 17.58-8.89 18.02-9.67 18.38-10.35 18.75-11.04 18.85-11.23L18.85-11.23Q18.99-11.38 19.34-12.01 19.68-12.65 20.09-13.38 20.51-14.11 20.83-14.75 21.14-15.38 21.19-15.58L21.19-15.58 20.61-15.58Q19.82-15.58 19.07-15.5 18.31-15.43 17.53-15.19L17.53-15.19Q17.19-15.23 16.94-15.38 16.7-15.53 16.36-15.67L16.36-15.67Q16.21-16.16 16.24-16.36 16.26-16.55 16.21-16.65L16.21-16.65Q16.16-16.85 16.09-16.94 16.02-17.04 16.02-17.24L16.02-17.24Q16.02-17.58 15.92-17.8 15.82-18.02 15.72-18.31L15.72-18.31Q15.72-18.51 15.75-18.7 15.77-18.9 15.67-19.04L15.67-19.04Q15.77-19.92 15.53-20.31L15.53-20.31Q15.53-21 15.72-21.19 15.92-21.39 16.02-21.78L16.02-21.78Q16.46-21.63 16.77-21.85 17.09-22.07 17.43-22.07L17.43-22.07Q18.21-22.07 18.7-22.31L18.7-22.31Q19.14-22.36 19.6-22.36 20.07-22.36 20.51-22.46L20.51-22.46Q20.75-22.51 20.92-22.56 21.09-22.61 21.34-22.66L21.34-22.66Q21.63-22.71 21.97-22.71 22.31-22.71 22.61-22.71L22.61-22.71Q23.39-22.8 24.17-22.83 24.95-22.85 25.73-22.9L25.73-22.9Q25.98-22.8 26.2-22.75 26.42-22.71 26.61-22.61L26.61-22.61Q26.76-22.51 26.86-22.39 26.95-22.27 27.2-22.22L27.2-22.22Q27.44-21.97 27.54-21.73L27.54-21.73Q27.44-21.29 27.59-21.09L27.59-21.09Q27.34-20.85 27.32-20.43 27.29-20.02 27.25-19.68L27.25-19.68Q27.59-19.58 27.83-19.14 28.08-18.7 28.17-18.7L28.17-18.7ZM42.04-37.01L42.14-36.96Q42.38-36.08 42.62-35.23 42.87-34.38 43.21-33.54L43.21-33.54Q43.94-33.45 44.11-33.4 44.28-33.35 44.53-33.25L44.53-33.25Q45.07-31.98 45.19-30.54 45.31-29.1 45.55-27.73L45.55-27.73Q46.48-26.51 46.9-25.12 47.31-23.73 47.85-22.31L47.85-22.31Q48-21.83 48.04-21.7 48.09-21.58 48.09-21.48L48.09-21.48Q48.39-20.65 48.68-19.78 48.97-18.9 49.31-18.07L49.31-18.07Q49.46-17.63 49.63-17.21 49.8-16.8 49.95-16.41L49.95-16.41Q50.1-15.92 50.22-15.41 50.34-14.89 50.49-14.4L50.49-14.4Q50.83-13.43 51.22-12.45 51.61-11.47 52-10.5L52-10.5Q52.15-10.16 52.56-8.98 52.98-7.81 53.42-6.52 53.85-5.22 54.22-4.13 54.59-3.03 54.59-2.78L54.59-2.78Q54.59-2.39 54.66-1.98 54.73-1.56 54.78-1.12L54.78-1.12Q54.59-0.63 54.29-0.59 54-0.54 53.76-0.63L53.76-0.63Q53.51-0.54 53.29-0.44 53.07-0.34 52.88-0.24L52.88-0.24Q52.73-0.2 52.63-0.1 52.54 0 52.39 0L52.39 0Q51.8 0 51.63 0.12 51.46 0.24 51.12 0.24L51.12 0.24Q50.68 0.1 50.56 0.22 50.44 0.34 50.34 0.39L50.34 0.39Q50.14 0.49 49.9 0.49 49.66 0.49 49.41 0.54L49.41 0.54Q49.31 0.34 49.24 0.15 49.17-0.05 49.02-0.29L49.02-0.29Q48.48-1.07 48.26-1.81 48.04-2.54 47.9-2.98L47.9-2.98Q47.65-3.52 47.48-4.05 47.31-4.59 47.07-5.13L47.07-5.13Q46.77-5.03 46.53-4.91 46.29-4.79 46.14-4.59L46.14-4.59Q45.55-4.59 45.55-4.44 45.55-4.3 45.46-4.15L45.46-4.15Q45.16-4.05 44.99-3.96 44.82-3.86 44.43-3.91L44.43-3.91Q44.19-3.66 43.94-3.49 43.7-3.32 43.31-3.27L43.31-3.27Q42.92-2.88 42.5-2.61 42.09-2.34 41.55-2.49L41.55-2.49Q40.87-2.34 40.18-2.22 39.5-2.1 38.82-2.1L38.82-2.1Q38.03-2.34 37.84-2.54 37.64-2.73 37.25-2.73L37.25-2.73Q37.3-3.42 36.96-3.66L36.96-3.66Q36.96-3.81 36.98-4.13 37.01-4.44 37.11-4.54L37.11-4.54Q37.74-4.83 37.84-5.18 37.94-5.52 38.38-5.62L38.38-5.62Q38.47-5.81 38.6-5.98 38.72-6.15 38.82-6.35L38.82-6.35Q39.06-6.45 39.23-6.49 39.4-6.54 39.5-6.79L39.5-6.79Q39.74-6.79 40.23-7.1 40.72-7.42 40.87-7.62L40.87-7.62Q41.26-7.76 41.35-7.89 41.45-8.01 41.6-8.11L41.6-8.11Q42.09-8.06 42.23-8.2L42.23-8.2Q42.62-8.01 43.11-8.01L43.11-8.01Q43.31-8.01 43.45-8.03 43.6-8.06 43.8-8.06L43.8-8.06Q44.19-8.45 44.8-8.57 45.41-8.69 45.8-9.08L45.8-9.08Q45.65-9.47 45.55-10.03 45.46-10.6 45.21-10.94L45.21-10.94Q45.11-11.57 44.89-12.16 44.68-12.74 44.53-13.28L44.53-13.28Q43.99-15.33 43.26-17.29 42.53-19.24 42.04-21.29L42.04-21.29Q41.94-21.53 41.82-21.8 41.7-22.07 41.6-22.31L41.6-22.31Q41.35-21.73 41.35-21.66 41.35-21.58 41.26-21.48L41.26-21.48Q41.21-21.24 41.16-21.07 41.11-20.9 41.01-20.65L41.01-20.65Q40.87-20.26 40.74-19.8 40.62-19.34 40.52-18.95L40.52-18.95Q40.28-18.12 40.09-17.21 39.89-16.31 39.65-15.43L39.65-15.43Q39.16-13.92 38.64-12.43 38.13-10.94 37.64-9.42L37.64-9.42Q37.55-8.74 37.42-8.37 37.3-8.01 37.18-7.64 37.06-7.28 36.98-6.93 36.91-6.59 36.91-6.4L36.91-6.4Q36.23-4.83 35.76-3.22 35.3-1.61 34.62-0.1L34.62-0.1Q34.42 0 34.27 0.15 34.13 0.29 33.93 0.29L33.93 0.29Q33.54 0.29 33.52 0.1 33.49-0.1 33.3-0.1L33.3-0.1Q33.1-0.1 32.96-0.02 32.81 0.05 32.66 0.15L32.66 0.15Q32.42 0.05 32.1 0.02 31.78 0 31.64-0.2L31.64-0.2Q31.3 0.05 30.95 0.05L30.95 0.05Q30.56 0.05 30.17-0.2L30.17-0.2Q29.88-0.1 29.59-0.1L29.59-0.1Q29.44-0.1 29.25-0.15 29.05-0.2 28.95-0.29L28.95-0.29Q28.9-0.49 28.9-0.68 28.9-0.88 28.9-1.12L28.9-1.12Q28.9-1.61 28.81-1.86L28.81-1.86Q29.68-4.35 30.52-6.91 31.35-9.47 32.18-12.11L32.18-12.11Q32.61-13.33 33.03-14.5 33.44-15.67 33.84-16.89L33.84-16.89Q34.03-17.58 34.18-18.19 34.32-18.8 34.57-19.38L34.57-19.38Q34.96-20.65 35.37-21.95 35.79-23.24 36.13-24.51L36.13-24.51Q36.33-24.66 36.37-24.85 36.42-25.05 36.52-25.29L36.52-25.29 36.47-25.93Q36.81-26.42 36.94-26.78 37.06-27.15 37.11-27.54L37.11-27.54Q37.35-28.13 37.55-28.81 37.74-29.49 37.84-30.08L37.84-30.08Q37.94-30.86 37.96-31.86 37.99-32.86 38.23-33.54L38.23-33.54Q38.33-33.74 38.4-33.81 38.47-33.89 38.47-34.13L38.47-34.13Q38.57-34.23 38.69-34.35 38.82-34.47 38.86-34.62L38.86-34.62Q39.11-35.01 39.04-35.3 38.96-35.6 38.96-35.94L38.96-35.94Q39.4-36.18 39.35-36.38 39.3-36.57 39.3-36.77L39.3-36.77Q39.3-37.01 39.62-37.23 39.94-37.45 40.04-37.7L40.04-37.7Q40.33-37.65 40.62-37.62 40.92-37.6 41.21-37.65L41.21-37.65Q41.55-37.01 42.04-37.01L42.04-37.01ZM76.75-27.49L76.75-27.49Q76.75-26.95 76.97-26.59 77.19-26.22 77.19-25.93L77.19-25.93Q77.09-25.44 77.39-24.78 77.68-24.12 77.68-23.44L77.68-23.44Q77.58-23.14 76.92-22.68 76.26-22.22 75.46-21.68 74.65-21.14 73.9-20.63 73.14-20.12 72.85-19.82L72.85-19.82Q73.09-19.43 73.46-19.19 73.82-18.95 74.16-18.7L74.16-18.7Q74.46-18.46 75.02-17.99 75.58-17.53 76.19-16.99 76.8-16.46 77.31-15.97 77.83-15.48 77.97-15.23L77.97-15.23Q78.07-15.19 78.14-14.89 78.22-14.6 78.27-14.23 78.32-13.87 78.34-13.53 78.36-13.18 78.36-13.09L78.36-13.09Q78.32-12.55 78.39-12.3 78.46-12.06 78.54-11.79 78.61-11.52 78.66-11.28 78.71-11.04 78.71-11.04L78.71-11.04Q78.71-10.74 78.44-10.5 78.17-10.25 77.92-10.06L77.92-10.06Q77.68-9.86 77.46-9.67 77.24-9.47 77-9.23L77-9.23Q76.7-8.98 76.34-8.76 75.97-8.54 75.68-8.3L75.68-8.3Q75.48-8.2 75.34-8.03 75.19-7.86 75.04-7.76L75.04-7.76Q74.6-7.37 74.07-7.01 73.53-6.64 73.04-6.35L73.04-6.35Q72.5-6.01 72.02-5.64 71.53-5.27 70.99-4.88L70.99-4.88Q70.26-4.44 69.55-4.03 68.84-3.61 68.16-3.17L68.16-3.17Q67.82-2.93 67.5-2.69 67.18-2.44 66.84-2.25L66.84-2.25Q65.86-1.71 64.89-1.12 63.91-0.54 62.98 0.15L62.98 0.15Q62.2 0.34 61.86 0.46 61.52 0.59 61.18 0.59L61.18 0.59Q60.88 0.59 60.81 0.37 60.74 0.15 60.54 0.15L60.54 0.15Q59.81 0.24 59.74 0.17 59.66 0.1 59.52 0L59.52 0Q58.78 0.1 58.3 0L58.3 0Q58.15-0.24 58.1-0.61 58.05-0.98 57.81-1.22L57.81-1.22Q57.91-1.71 57.83-2.15 57.76-2.59 57.86-3.03L57.86-3.03Q57.71-3.61 57.71-4.1L57.71-4.1Q57.71-4.74 57.86-5.42L57.86-5.42Q57.71-5.86 57.71-6.3L57.71-6.3Q57.71-6.69 57.76-7.08 57.81-7.47 57.81-7.86L57.81-7.86Q57.81-8.35 57.61-8.74L57.61-8.74Q57.61-9.62 57.59-10.47 57.56-11.33 57.56-12.21L57.56-12.21Q57.56-12.6 57.56-12.99 57.56-13.38 57.61-13.82L57.61-13.82Q57.56-14.06 57.56-14.55L57.56-14.55Q57.56-14.84 57.66-15.06 57.76-15.28 57.76-15.53L57.76-15.53Q57.76-16.06 57.69-16.55 57.61-17.04 57.61-17.58L57.61-17.58Q57.61-18.07 57.69-18.51 57.76-18.95 57.76-19.43L57.76-19.43Q57.61-19.63 57.56-19.87 57.51-20.12 57.51-20.36L57.51-20.36Q57.51-20.56 57.61-20.95L57.61-20.95Q57.61-21.34 57.56-21.78 57.51-22.22 57.51-22.61L57.51-22.61Q57.51-22.8 57.54-22.95 57.56-23.1 57.61-23.29L57.61-23.29Q57.51-23.63 57.51-23.97 57.51-24.32 57.51-24.66L57.51-24.66Q57.51-25.1 57.56-25.56 57.61-26.03 57.61-26.46L57.61-26.46Q57.56-27.2 57.64-27.61 57.71-28.03 57.76-28.47L57.76-28.47 57.76-31.25Q57.76-31.64 57.66-32.1 57.56-32.57 57.56-33.01L57.56-33.01Q57.56-33.25 57.61-33.74 57.66-34.23 57.76-34.47L57.76-34.47Q58.44-35.5 59.37-35.64L59.37-35.64Q59.57-35.74 59.66-35.91 59.76-36.08 60.1-36.08L60.1-36.08Q60.69-36.57 60.88-36.84 61.08-37.11 61.37-37.35L61.37-37.35Q61.52-37.35 61.64-37.43 61.76-37.5 61.96-37.5L61.96-37.5Q62.3-37.4 62.52-37.3 62.74-37.21 62.98-37.16L62.98-37.16Q63.96-36.43 64.91-35.72 65.86-35.01 66.84-34.23L66.84-34.23Q67.28-33.84 67.7-33.45 68.11-33.06 68.55-32.71L68.55-32.71Q68.79-32.57 69.09-32.42 69.38-32.28 69.62-32.08L69.62-32.08Q70.16-31.74 70.7-31.37 71.24-31.01 71.77-30.66L71.77-30.66 75.29-28.47Q75.68-28.22 76.04-27.98 76.41-27.73 76.75-27.49ZM69.77-25.39L69.77-25.39Q69.04-25.73 68.38-26.22 67.72-26.71 66.99-26.95L66.99-26.95Q66.6-27.34 66.16-27.49 65.72-27.64 65.33-27.93L65.33-27.93Q64.89-28.32 64.55-28.61 64.2-28.91 63.67-29.15L63.67-29.15Q63.42-27.64 63.3-26.2 63.18-24.76 63.18-23.29L63.18-23.29Q63.18-21.78 63.47-20.41L63.47-20.41Q64.01-20.65 64.5-20.95 64.99-21.24 65.47-21.53L65.47-21.53Q65.67-21.63 65.84-21.73 66.01-21.83 66.25-21.92L66.25-21.92Q66.5-22.12 66.74-22.31 66.99-22.51 67.23-22.66L67.23-22.66Q67.77-23.05 68.28-23.36 68.79-23.68 69.33-24.07L69.33-24.07Q69.58-24.27 69.87-24.39 70.16-24.51 70.45-24.76L70.45-24.76Q70.41-24.95 70.14-25.07 69.87-25.2 69.77-25.39ZM68.35-16.26L68.35-16.26Q68.21-16.26 68.06-16.33 67.91-16.41 67.72-16.41L67.72-16.41Q67.13-16.02 66.62-15.75 66.11-15.48 65.57-15.14L65.57-15.14Q65.33-14.99 65.08-14.79 64.84-14.6 64.59-14.5L64.59-14.5Q63.96-14.11 63.62-13.84 63.28-13.57 63.08-13.18L63.08-13.18Q63.18-11.82 63.15-10.45 63.13-9.08 63.13-7.67L63.13-7.67Q63.13-7.42 63.28-7.13L63.28-7.13Q63.72-7.18 64.84-7.79 65.96-8.4 67.21-9.18 68.45-9.96 69.6-10.69 70.75-11.43 71.28-11.77L71.28-11.77Q71.67-11.87 72.19-12.16 72.7-12.45 72.8-12.84L72.8-12.84Q71.87-13.92 70.65-14.62 69.43-15.33 68.35-16.26ZM104.14-4.69L104.14-4.69Q104.09-3.96 104.46-3.59 104.83-3.22 105.07-2.69L105.07-2.69Q104.97-2 105.22-1.61L105.22-1.61Q105.07-1.32 104.92-0.95 104.78-0.59 104.48-0.34L104.48-0.34Q103.7 0 103.56 0.24 103.41 0.49 102.97 0.49L102.97 0.49Q102.73 0.73 102.43 1 102.14 1.27 101.9 1.51L101.9 1.51Q101.65 1.42 101.56 1.27 101.46 1.12 101.26 0.88L101.26 0.88Q100.77 0.73 100.38 0.37 99.99 0 99.7-0.46 99.41-0.93 99.14-1.44 98.87-1.95 98.67-2.39L98.67-2.39Q97.99-3.66 97.28-4.96 96.57-6.25 95.84-7.52L95.84-7.52Q95.45-8.15 95.09-8.81 94.72-9.47 94.33-10.16L94.33-10.16Q94.23-10.25 94.13-10.38 94.04-10.5 93.94-10.64L93.94-10.64Q93.6-11.13 93.43-11.74 93.25-12.35 92.72-12.74L92.72-12.74Q91.79-12.84 91.03-12.48 90.28-12.11 89.69-11.52L89.69-11.52Q89.74-11.18 89.74-10.89 89.74-10.6 89.74-10.3L89.74-10.3Q89.74-9.18 89.64-8.15 89.54-7.13 89.54-6.01L89.54-6.01Q89.54-5.52 89.59-5 89.64-4.49 89.74-4L89.74-4Q89.59-3.47 89.59-2.83L89.59-2.83Q89.59-2.49 89.67-2.2 89.74-1.9 89.74-1.56L89.74-1.56Q89.74-1.07 89.42-0.9 89.1-0.73 89.2-0.29L89.2-0.29Q88.62-0.05 88.08 0.2 87.54 0.44 86.96 0.54L86.96 0.54Q86.71 0.59 86.47 0.56 86.22 0.54 86.03 0.63L86.03 0.63Q85.78 0.73 85.64 1 85.49 1.27 85.25 1.27L85.25 1.27Q84.95 1.27 84.9 1.05 84.86 0.83 84.71 0.68L84.71 0.68Q84.47 0.59 84.32 0.59 84.17 0.59 84.03 0.44L84.03 0.44Q84.07 0 83.83-0.22 83.59-0.44 83.59-1.12L83.59-1.12Q83.59-1.66 83.66-2.15 83.73-2.64 83.73-3.17L83.73-3.17Q83.73-3.61 83.61-3.98 83.49-4.35 83.39-4.79L83.39-4.79Q83.34-4.98 83.39-5.18 83.44-5.37 83.44-5.57L83.44-5.57Q83.44-6.45 83.37-7.35 83.29-8.25 83.29-9.13L83.29-9.13Q83.29-9.47 83.29-9.77 83.29-10.06 83.34-10.35L83.34-10.35Q83.44-10.64 83.51-10.84 83.59-11.04 83.59-11.33L83.59-11.33Q83.59-12.26 83.39-13.16 83.2-14.06 83.2-14.94L83.2-14.94Q83.2-15.43 83.22-15.94 83.24-16.46 83.24-16.94L83.24-16.94Q83.24-18.36 83.2-19.73 83.15-21.09 83.15-22.46L83.15-22.46Q83.15-23.44 83.2-24.39 83.24-25.34 83.24-26.32L83.24-26.32Q83.24-27.54 83.15-28.74 83.05-29.93 83.05-31.2L83.05-31.2Q83.05-31.64 83-31.79 82.95-31.93 82.85-31.96 82.76-31.98 82.63-32.01 82.51-32.03 82.41-32.18L82.41-32.18Q82.41-32.47 82.66-32.59 82.9-32.71 82.9-33.4L82.9-33.4Q82.9-33.79 82.83-34.18 82.76-34.57 82.76-34.96L82.76-34.96Q82.76-35.55 83-36.13 83.24-36.72 83.44-37.26L83.44-37.26Q84.03-37.3 84.25-37.26 84.47-37.21 84.71-37.3L84.71-37.3Q84.86-36.77 85.34-36.74 85.83-36.72 86.22-36.62L86.22-36.62Q86.66-36.57 87.08-36.4 87.49-36.23 87.88-36.23L87.88-36.23Q87.98-35.94 88.3-35.82 88.62-35.69 88.96-35.6L88.96-35.6Q89.35-35.64 89.57-35.94 89.79-36.23 90.18-36.23L90.18-36.23Q90.47-36.23 90.86-35.82 91.25-35.4 91.45-35.16L91.45-35.16Q91.64-35.01 92.18-34.52 92.72-34.03 93.35-33.52 93.99-33.01 94.52-32.54 95.06-32.08 95.21-32.03L95.21-32.03Q97.21-30.03 98.94-28.39 100.68-26.76 102.73-25.44L102.73-25.44Q102.78-25.29 102.85-25.2 102.92-25.1 103.02-24.95L103.02-24.95Q103.02-24.56 102.87-24.37 102.73-24.17 102.73-23.88L102.73-23.88Q102.73-23.73 102.8-23.58 102.87-23.44 102.87-23.29L102.87-23.29Q102.92-23.1 102.9-22.92 102.87-22.75 102.87-22.56L102.87-22.56Q102.87-22.07 103.19-21.68 103.51-21.29 103.51-20.8L103.51-20.8Q103.41-20.36 103.12-20.26 102.82-20.17 102.63-20.02L102.63-20.02Q102.53-19.92 102.46-19.78 102.39-19.63 102.29-19.53L102.29-19.53Q101.21-19.04 100.72-18.63 100.24-18.21 99.7-17.82L99.7-17.82Q99.55-17.72 99.21-17.5 98.87-17.29 98.53-17.07 98.19-16.85 97.92-16.6 97.65-16.36 97.65-16.21L97.65-16.21Q97.65-15.87 98.06-15.26 98.48-14.65 98.67-14.31L98.67-14.31Q99.21-13.43 99.65-12.57 100.09-11.72 100.63-10.89L100.63-10.89Q101.6-9.38 102.46-7.81 103.31-6.25 104.14-4.69ZM96.18-22.85L96.18-22.85Q95.06-24.27 93.77-25.42 92.47-26.56 91.3-27.83L91.3-27.83 90.76-27.93Q90.47-28.42 90.1-28.78 89.74-29.15 89.35-29.54L89.35-29.54Q89.4-29 89.4-28.52 89.4-28.03 89.4-27.49L89.4-27.49Q89.4-25.93 89.32-24.44 89.25-22.95 89.25-21.44L89.25-21.44Q89.25-19.92 89.4-18.55L89.4-18.55Q90.42-18.55 91.25-19.14L91.25-19.14Q91.59-19.38 91.89-19.65 92.18-19.92 92.52-20.17L92.52-20.17Q92.91-20.41 93.43-20.75 93.94-21.09 94.45-21.44 94.96-21.78 95.43-22.14 95.89-22.51 96.18-22.85ZM115.66-33.2L115.66-33.2Q115.66-32.76 115.37-32.54 115.08-32.32 114.83-31.98L114.83-31.98Q114.35-31.54 113.98-31.08 113.61-30.62 113.12-30.18L113.12-30.18Q112.93-29.98 112.59-29.66 112.25-29.35 111.88-29.03 111.51-28.71 111.15-28.47 110.78-28.22 110.54-28.22L110.54-28.22Q110.15-28.22 109.54-28.49 108.93-28.76 108.49-28.86L108.49-28.86Q108.14-28.91 107.88-28.93 107.61-28.96 107.36-29.2L107.36-29.2Q106.48-29.39 106.24-29.81 106-30.22 105.7-30.66L105.7-30.66Q105.7-30.86 105.85-30.91 106-30.96 106.09-31.1L106.09-31.1Q106.58-31.74 106.92-32.15 107.27-32.57 107.7-33.01L107.7-33.01Q108.53-33.74 109.29-34.52 110.05-35.3 110.88-35.99L110.88-35.99Q111.27-36.04 111.46-36.28 111.66-36.52 112.05-36.52L112.05-36.52Q112.44-36.52 112.71-36.28 112.98-36.04 113.2-35.72 113.42-35.4 113.64-35.08 113.86-34.77 114.15-34.62L114.15-34.62Q114.49-34.38 115.08-33.98 115.66-33.59 115.66-33.2ZM108.97-24.12L108.97-24.12Q109.32-23.93 109.49-23.61 109.66-23.29 110-23.14L110-23.14Q110.29-23 110.63-23 110.98-23 111.22-22.9L111.22-22.9Q111.42-22.8 111.51-22.66 111.61-22.51 111.71-22.36L111.71-22.36Q112-22.12 112.61-21.92 113.22-21.73 113.42-21.48L113.42-21.48Q113.76-21.04 113.93-20.36 114.1-19.68 114.2-18.92 114.3-18.16 114.35-17.41 114.39-16.65 114.49-16.11L114.49-16.11Q114.59-14.99 114.74-13.89 114.88-12.79 114.88-11.67L114.88-11.67Q114.88-10.55 114.78-9.38 114.69-8.2 114.69-7.08L114.69-7.08Q114.69-6.49 114.66-5.62 114.64-4.74 114.25-4.25L114.25-4.25Q114.2-4.05 114.2-3.56L114.2-3.56 114.2-2Q114.2-1.71 114.25-1.42 114.3-1.12 114.3-0.78L114.3-0.78Q114.3-0.24 114 0L114 0Q113.86-0.05 113.69-0.05 113.52-0.05 113.37-0.05L113.37-0.05Q112.83-0.05 112.59 0.15L112.59 0.15Q112.05 0.1 111.56 0.05 111.07 0 110.54 0L110.54 0Q109.71 0 108.73 0.24L108.73 0.24Q108.53-0.24 108.56-0.78 108.58-1.32 108.34-1.76L108.34-1.76Q108.29-1.9 108.27-2.03 108.24-2.15 108.24-2.29L108.24-2.29Q108.39-2.88 108.39-3.1 108.39-3.32 108.39-3.56L108.39-3.56Q108.39-4.25 108.34-4.96 108.29-5.66 108.39-6.35L108.39-6.35Q108.39-6.59 108.46-6.79 108.53-6.98 108.53-7.23L108.53-7.23Q108.53-7.47 108.44-7.57 108.34-7.67 108.34-7.81L108.34-7.81Q108.34-7.96 108.36-8.3 108.39-8.64 108.49-8.74L108.49-8.74Q108.49-9.13 108.51-9.5 108.53-9.86 108.53-10.21L108.53-10.21Q108.53-10.99 108.49-11.77 108.44-12.55 108.44-13.28L108.44-13.28Q108.44-13.62 108.39-13.72 108.34-13.82 108.29-13.87 108.24-13.92 108.14-13.94 108.05-13.96 108-14.11L108-14.11Q108.19-16.26 107.85-18.41 107.51-20.56 107.51-22.75L107.51-22.75Q107.51-23.1 107.61-23.27 107.7-23.44 107.85-23.54 108-23.63 108.12-23.75 108.24-23.88 108.29-24.12L108.29-24.12Q108.68-24.02 108.97-24.12ZM127.82-12.79L127.82-12.79Q127.92-12.55 128.53-11.77 129.14-10.99 129.92-10.06 130.7-9.13 131.41-8.28 132.12-7.42 132.41-7.03L132.41-7.03Q132.95-6.35 133.46-5.69 133.97-5.03 134.41-4.3L134.41-4.3 135.29-2.83Q135.68-2.34 136-2 136.32-1.66 136.51-1.07L136.51-1.07Q136.61-0.68 136.61-0.54L136.61-0.54Q136.61-0.2 136.36-0.05L136.36-0.05Q135.97-0.05 135.95 0.07 135.93 0.2 135.73 0.29L135.73 0.29Q135.53 0.39 135.12 0.42 134.7 0.44 134.46 0.44L134.46 0.44Q134.02 0.44 133.36 0.42 132.7 0.39 132.31 0.54L132.31 0.54Q132.21 0.59 132.02 0.68 131.82 0.78 131.73 0.78L131.73 0.78Q131.34 0.78 131.16 0.66 130.99 0.54 130.7 0.49L130.7 0.49Q130.31 0.05 130.04-0.42 129.77-0.88 129.43-1.37L129.43-1.37Q129.09-1.71 128.75-1.98 128.41-2.25 128.16-2.59L128.16-2.59Q127.43-3.66 126.65-4.69 125.87-5.71 125.04-6.69L125.04-6.69Q124.65-7.23 124.21-7.67 123.77-8.11 123.38-8.64L123.38-8.64Q122.99-9.13 122.64-9.69 122.3-10.25 121.96-10.79L121.96-10.79Q121.67-11.23 121.18-11.94 120.69-12.65 120.1-13.35 119.52-14.06 118.93-14.7 118.35-15.33 117.96-15.67L117.96-15.67Q117.91-15.97 117.71-16.14 117.52-16.31 117.27-16.46L117.27-16.46Q117.18-16.7 117.05-16.92 116.93-17.14 116.93-17.38L116.93-17.38Q116.93-17.72 117.08-18.02L117.08-18.02Q117.18-18.21 117.2-18.38 117.22-18.55 117.32-18.75L117.32-18.75Q117.57-19.29 117.98-19.8 118.4-20.31 118.64-20.9L118.64-20.9Q118.74-21.04 118.74-21.22 118.74-21.39 118.84-21.53L118.84-21.53Q118.93-21.92 119.25-22.19 119.57-22.46 119.76-22.8L119.76-22.8Q120.01-23.19 120.23-23.61 120.45-24.02 120.69-24.51L120.69-24.51Q121.42-25.73 122.23-26.88 123.03-28.03 123.86-29.2L123.86-29.2Q124.5-30.18 125.11-31.08 125.72-31.98 126.35-32.91L126.35-32.91Q126.7-33.35 127.09-33.94 127.48-34.52 127.94-35.11 128.41-35.69 128.89-36.18 129.38-36.67 129.87-36.96L129.87-36.96Q130.6-37.01 130.85-36.65 131.09-36.28 131.58-36.28L131.58-36.28Q132.21-36.13 132.41-35.89 132.6-35.64 132.85-35.4L132.85-35.4Q133.53-35.4 133.95-35.16 134.36-34.91 134.75-34.42L134.75-34.42Q134.61-33.89 134.31-33.47 134.02-33.06 133.78-32.62L133.78-32.62Q133.39-32.42 133.22-32.08 133.04-31.74 132.7-31.54L132.7-31.54Q132.21-30.71 131.68-29.96 131.14-29.2 130.6-28.47L130.6-28.47Q130.31-28.03 129.99-27.69 129.68-27.34 129.43-26.95L129.43-26.95Q129.33-26.81 129.26-26.64 129.19-26.46 129.09-26.32L129.09-26.32Q128.5-25.39 127.82-24.58 127.14-23.78 126.55-22.8L126.55-22.8Q126.35-22.46 126.23-22.09 126.11-21.73 125.92-21.39L125.92-21.39Q125.72-21.09 125.35-20.61 124.99-20.12 124.65-19.56 124.3-18.99 124.04-18.48 123.77-17.97 123.77-17.63L123.77-17.63Q123.82-17.38 124.38-16.67 124.94-15.97 125.65-15.16 126.35-14.36 126.99-13.65 127.62-12.94 127.82-12.79ZM131.04-21.68L131.04-21.68Q131.38-20.95 131.77-20.41L131.77-20.41Q131.92-20.21 132.12-20.07 132.31-19.92 132.41-19.68L132.41-19.68Q132.51-19.58 132.6-19.26 132.7-18.95 132.8-18.8L132.8-18.8Q132.95-18.41 133.39-17.92 133.83-17.43 133.83-17.04L133.83-17.04Q133.83-16.8 133.73-16.5 133.63-16.21 133.58-15.97L133.58-15.97Q133.53-15.67 133.53-15.36 133.53-15.04 133.34-14.79L133.34-14.79Q133.09-14.55 132.8-14.5 132.51-14.45 132.26-14.26L132.26-14.26Q132.17-14.16 131.97-13.92 131.77-13.67 131.58-13.38 131.38-13.09 131.21-12.82 131.04-12.55 131.04-12.4L131.04-12.4Q130.46-12.35 130.29-12.38 130.11-12.4 129.92-12.35L129.92-12.35Q129.68-12.6 129.41-12.77 129.14-12.94 128.75-13.09L128.75-13.09Q128.65-13.48 128.31-13.99 127.97-14.5 127.72-14.84L127.72-14.84 127.38-15.28Q126.65-16.31 126.04-17.26 125.43-18.21 125.13-19.38L125.13-19.38Q126.06-20.07 126.57-20.41 127.09-20.75 127.67-21.04 128.26-21.34 128.82-21.61 129.38-21.88 129.87-22.27L129.87-22.27Q130.26-22.27 130.41-22.22 130.55-22.17 130.6-22.12 130.65-22.07 130.72-21.95 130.8-21.83 131.04-21.68ZM157.94-8.35L157.94-8.35Q158.29-7.91 158.36-7.64 158.43-7.37 158.53-7.1 158.63-6.84 158.7-6.59 158.77-6.35 158.77-6.3L158.77-6.3Q158.77-5.96 158.65-5.74 158.53-5.52 158.29-5.18L158.29-5.18Q156.33-4.44 154.43-3.74 152.52-3.03 150.52-2.34L150.52-2.34Q149.99-2.2 149.55-2.03 149.11-1.86 148.57-1.76L148.57-1.76Q148.47-1.66 148.25-1.59 148.03-1.51 147.74-1.42 147.45-1.32 147.18-1.25 146.91-1.17 146.81-1.17L146.81-1.17Q146.42-1.07 145.96-1.1 145.49-1.12 145.05-1.07L145.05-1.07Q144.81-1.03 144.71-0.83 144.61-0.63 144.49-0.42 144.37-0.2 144.13-0.02 143.88 0.15 143.44 0.15L143.44 0.15Q143 0.15 142.56 0.1 142.12 0.05 141.64-0.15L141.64-0.15Q141.54-0.29 141.56-0.51 141.59-0.73 141.49-0.88L141.49-0.88Q141.05-0.93 140.81-0.81 140.56-0.68 140.32-0.63L140.32-0.63Q140.17-0.83 140.1-1.1 140.02-1.37 139.83-1.56L139.83-1.56Q139.78-1.81 139.78-2.05 139.78-2.29 139.78-2.54L139.78-2.54Q139.78-2.88 139.8-3.34 139.83-3.81 139.98-4.05L139.98-4.05Q140.12-6.84 140.12-9.62 140.12-12.4 140.12-15.19L140.12-15.19Q140.12-15.48 140.12-15.94 140.12-16.41 140.1-16.89 140.07-17.38 140.05-17.8 140.02-18.21 139.98-18.41L139.98-18.41Q140.02-18.75 140.02-19.07 140.02-19.38 140.02-19.73L140.02-19.73Q140.02-20.02 140.02-20.26 140.02-20.51 139.93-20.75L139.93-20.75Q139.98-20.95 139.98-21.29L139.98-21.29Q139.98-21.53 139.93-21.78 139.88-22.02 139.88-22.27L139.88-22.27Q139.88-22.66 139.9-23.02 139.93-23.39 139.93-23.78L139.93-23.78Q139.93-25.05 139.8-26.29 139.68-27.54 139.68-28.81L139.68-28.81Q139.68-30.47 139.66-32.13 139.63-33.79 139.58-35.45L139.58-35.45Q139.78-35.94 139.78-36.28L139.78-36.28Q140.46-36.62 140.85-36.52 141.24-36.43 141.64-36.43L141.64-36.43Q141.88-36.43 142.07-36.47 142.27-36.52 142.47-36.62L142.47-36.62Q142.71-36.57 142.88-36.5 143.05-36.43 143.3-36.43L143.3-36.43Q144.03-36.57 144.1-36.47 144.17-36.38 144.32-36.28L144.32-36.28Q144.52-36.33 144.64-36.45 144.76-36.57 144.96-36.57L144.96-36.57Q145.25-36.57 145.4-36.21 145.54-35.84 145.74-35.6L145.74-35.6Q145.74-35.06 145.93-34.62L145.93-34.62Q146.03-32.62 146.01-30.66 145.98-28.71 146.13-26.76L146.13-26.76Q146.18-25.88 146.25-24.93 146.32-23.97 146.32-23.1L146.32-23.1Q146.32-21.63 146.35-20.14 146.37-18.65 146.37-17.14L146.37-17.14Q146.37-16.89 146.4-16.7 146.42-16.5 146.42-16.26L146.42-16.26Q146.42-15.67 146.37-15.14 146.32-14.6 146.32-14.06L146.32-14.06 146.32-10.25Q146.32-9.77 146.3-9.25 146.27-8.74 146.32-8.25L146.32-8.25 146.52-7.67Q147.06-7.86 147.62-8.08 148.18-8.3 148.81-8.4L148.81-8.4Q149.2-8.5 149.55-8.59 149.89-8.69 150.28-8.79L150.28-8.79Q150.96-9.18 151.35-9.33 151.74-9.47 152.13-9.62L152.13-9.62Q152.96-9.91 153.74-10.23 154.53-10.55 155.36-10.84L155.36-10.84Q155.75-10.74 155.99-10.94L155.99-10.94Q156.48-10.84 156.87-10.84L156.87-10.84Q157.41-10.3 157.53-10.01 157.65-9.72 157.9-9.47L157.9-9.47Q157.8-9.23 157.92-9.18 158.04-9.13 158.09-8.94L158.09-8.94Q158.29-8.84 158.14-8.67 157.99-8.5 157.94-8.35ZM212.92-0.15L212.92-0.15Q212.68 0.1 212.38 0.15 212.09 0.2 211.8 0.2L211.8 0.2Q211.06 0.54 210.23 0.54L210.23 0.54Q209.7 0.24 209.65 0.34 209.6 0.44 209.45 0.54L209.45 0.54Q208.72 0.88 208.13 0.9 207.55 0.93 207.16 1.17L207.16 1.17Q206.77 0.88 206.74 0.32 206.72-0.24 206.62-0.63L206.62-0.63Q206.38-0.98 206.28-1.49 206.18-2 206.13-2.54 206.08-3.08 206.01-3.59 205.94-4.1 205.74-4.49L205.74-4.49Q205.69-4.74 205.72-4.93 205.74-5.13 205.64-5.37L205.64-5.37Q205.69-6.2 205.6-6.69 205.5-7.18 205.4-7.71L205.4-7.71Q205.35-8.01 205.35-8.37 205.35-8.74 205.06-8.94L205.06-8.94Q205.2-9.62 205.11-9.96 205.01-10.3 204.96-10.6L204.96-10.6Q204.91-10.99 204.91-11.45 204.91-11.91 204.81-12.3L204.81-12.3Q204.52-14.65 204.18-16.99 203.84-19.34 203.54-21.68L203.54-21.68Q203.25-21.44 203.13-20.95 203.01-20.46 202.91-20.07L202.91-20.07Q202.62-19.19 202.37-18.26 202.13-17.33 201.88-16.46L201.88-16.46Q201.79-16.06 201.71-15.55 201.64-15.04 201.49-14.65L201.49-14.65Q201.01-13.23 200.64-12.21 200.27-11.18 199.93-10.11L199.93-10.11Q199.83-9.52 199.74-8.98 199.64-8.45 199.54-7.91L199.54-7.91Q199.49-7.62 199.39-7.08 199.3-6.54 199.2-6.3L199.2-6.3Q199.1-6.05 199.03-5.96 198.95-5.86 199-5.62L199-5.62Q198.52-4.88 198.34-4 198.17-3.13 197.73-2.29L197.73-2.29Q197.73-1.71 197.29-1.27L197.29-1.27Q197.05-1.22 196.83-1.17 196.61-1.12 196.37-0.98L196.37-0.98Q196.12-1.07 195.81-1.1 195.49-1.12 195.19-1.12L195.19-1.12Q194.95-1.17 194.76-1.29 194.56-1.42 194.32-1.46L194.32-1.46Q194.07-1.76 193.78-1.98 193.49-2.2 193.19-2.44L193.19-2.44Q192.9-3.17 192.66-3.42L192.66-3.42Q192.51-3.96 192.27-4.42 192.02-4.88 191.92-5.47L191.92-5.47Q191.78-6.01 191.56-6.47 191.34-6.93 191.09-7.47L191.09-7.47Q191-7.81 190.87-8.13 190.75-8.45 190.61-8.79L190.61-8.79Q190.56-9.18 190.34-9.77 190.12-10.35 190.02-10.79L190.02-10.79Q190.02-10.84 189.85-11.3 189.68-11.77 189.51-12.3 189.34-12.84 189.16-13.28 188.99-13.72 188.94-13.77L188.94-13.77Q188.85-14.01 188.77-14.23 188.7-14.45 188.6-14.75L188.6-14.75Q188.41-15.38 188.11-16.04 187.82-16.7 187.53-17.29L187.53-17.29Q187.28-17.77 187.19-18.24 187.09-18.7 186.94-19.14L186.94-19.14Q186.85-19.38 186.77-19.58 186.7-19.78 186.6-20.02L186.6-20.02Q186.5-20.31 186.41-20.63 186.31-20.95 186.21-21.29L186.21-21.29Q185.97-21.19 185.99-20.87 186.02-20.56 185.97-20.31L185.97-20.31Q185.87-19.78 185.87-19.26 185.87-18.75 185.82-18.21L185.82-18.21Q185.72-17.63 185.62-17.09 185.53-16.55 185.48-16.02L185.48-16.02Q185.48-14.7 185.33-13.38L185.33-13.38Q185.23-12.21 185.09-11.01 184.94-9.81 184.89-8.54L184.89-8.54Q184.89-7.62 184.7-6.71 184.5-5.81 184.6-4.83L184.6-4.83Q184.5-4.64 184.5-4.54 184.5-4.44 184.5-4.25L184.5-4.25Q184.5-4 184.48-3.71 184.45-3.42 184.45-3.17L184.45-3.17Q184.45-2.73 184.55-2.59L184.55-2.59Q184.4-2.15 184.4-1.64 184.4-1.12 184.4-0.63L184.4-0.63Q184.31-0.44 184.28-0.24 184.26-0.05 184.11 0.15L184.11 0.15Q184.16 0.98 183.62 0.98L183.62 0.98Q183.48 0.98 183.31 0.9 183.13 0.83 183.04 0.68L183.04 0.68Q182.5 0.73 182.43 0.44 182.35 0.15 182.11 0.2L182.11 0.2Q181.52 0.44 181.45 0.34 181.38 0.24 181.13 0.29L181.13 0.29Q180.74-0.1 180.62-0.05 180.5 0 180.4 0L180.4 0Q179.96-0.15 179.91-0.07 179.86 0 179.72 0L179.72 0Q179.47-0.24 179.06-0.24 178.64-0.24 178.35-0.29L178.35-0.29Q178.3-0.49 178.28-0.66 178.25-0.83 178.25-1.07L178.25-1.07Q178.25-1.37 178.28-1.64 178.3-1.9 178.3-2.2L178.3-2.2Q178.3-2.44 178.28-2.71 178.25-2.98 178.25-3.32L178.25-3.32Q178.25-3.66 178.3-3.98 178.35-4.3 178.35-4.69L178.35-4.69Q178.35-4.83 178.3-4.96 178.25-5.08 178.25-5.27L178.25-5.27Q178.54-5.91 178.52-6.27 178.5-6.64 178.54-6.98L178.54-6.98Q178.64-7.81 178.72-8.62 178.79-9.42 178.89-10.25L178.89-10.25Q178.89-11.62 178.96-12.52 179.03-13.43 179.18-14.36L179.18-14.36Q179.28-14.79 179.35-15.19 179.42-15.58 179.52-16.02L179.52-16.02Q179.62-16.75 179.64-17.55 179.67-18.36 179.77-19.14L179.77-19.14Q179.86-20.36 180.01-21.56 180.16-22.75 180.25-23.93L180.25-23.93Q180.35-24.85 180.47-25.76 180.6-26.66 180.6-27.49L180.6-27.49Q180.6-27.93 180.72-28.61 180.84-29.3 180.89-29.79L180.89-29.79Q180.99-30.96 181.06-32.08 181.13-33.2 181.13-34.33L181.13-34.33 181.13-34.86Q181.13-34.96 181.23-35.06 181.33-35.16 181.33-35.4L181.33-35.4Q181.33-35.84 181.55-36.01 181.77-36.18 181.91-36.57L181.91-36.57Q182.16-36.57 182.48-36.52 182.79-36.47 182.94-36.23L182.94-36.23Q183.28-36.33 183.62-36.33 183.96-36.33 184.21-36.57L184.21-36.57Q184.5-36.57 184.65-36.43 184.79-36.28 185.04-36.18L185.04-36.18Q185.23-36.28 185.43-36.35 185.62-36.43 185.82-36.52L185.82-36.52Q185.97-36.43 186.04-36.3 186.11-36.18 186.26-36.13L186.26-36.13Q186.99-36.33 187.24-36.18L187.24-36.18Q187.33-35.99 187.36-35.79 187.38-35.6 187.43-35.4L187.43-35.4Q187.92-34.91 188.07-34.3 188.21-33.69 188.6-33.2L188.6-33.2Q188.7-32.91 188.82-32.62 188.94-32.32 189.04-31.93L189.04-31.93 189.19-31.35Q189.38-30.86 189.68-30.18L189.68-30.18Q189.92-29.25 190.12-28.27 190.31-27.29 190.75-26.46L190.75-26.46Q190.8-26.17 190.92-25.76 191.04-25.34 191.14-25.05L191.14-25.05Q191.48-24.22 191.85-23.41 192.22-22.61 192.51-21.68L192.51-21.68Q192.8-20.75 193.02-19.78 193.24-18.8 193.58-17.87L193.58-17.87Q193.88-16.99 194.02-16.6 194.17-16.21 194.41-15.82L194.41-15.82Q194.41-15.67 194.49-15.33 194.56-14.99 194.71-14.62 194.85-14.26 195-13.94 195.15-13.62 195.29-13.57L195.29-13.57Q195.44-13.67 195.46-13.87 195.49-14.06 195.63-14.21L195.63-14.21Q195.68-14.75 195.81-15.53 195.93-16.31 196.17-16.8L196.17-16.8Q196.17-17.04 196.29-17.7 196.42-18.36 196.61-19.12 196.81-19.87 196.98-20.51 197.15-21.14 197.29-21.29L197.29-21.29Q197.39-21.92 197.47-22.07 197.54-22.22 197.64-22.31L197.64-22.31Q197.69-22.71 197.83-23.05 197.98-23.39 198.03-23.78L198.03-23.78Q198.12-24.61 198.27-25.15 198.42-25.68 198.66-26.46L198.66-26.46Q198.86-27.15 199.03-27.86 199.2-28.56 199.44-29.25L199.44-29.25Q200.03-31.1 200.49-32.54 200.96-33.98 201.64-35.35L201.64-35.35Q201.79-35.79 201.88-35.89 201.98-35.99 202.08-36.08L202.08-36.08Q202.47-36.23 202.89-36.23 203.3-36.23 203.74-36.18L203.74-36.18Q204.23-36.38 204.47-36.62L204.47-36.62Q204.67-36.38 205.06-36.38L205.06-36.38Q205.55-36.38 205.74-36.67L205.74-36.67Q205.94-36.57 206.06-36.62 206.18-36.67 206.43-36.57L206.43-36.57Q206.52-36.67 206.67-36.79 206.82-36.91 206.96-36.91L206.96-36.91Q207.35-36.43 207.57-36.16 207.79-35.89 207.89-35.55L207.89-35.55Q208.04-35.11 208.06-34.59 208.09-34.08 208.33-33.64L208.33-33.64Q208.28-33.01 208.4-31.71 208.52-30.42 208.7-28.98 208.87-27.54 209.06-26.32 209.26-25.1 209.4-24.8L209.4-24.8Q209.36-24.17 209.45-23.73 209.55-23.29 209.55-22.85L209.55-22.85Q209.55-22.71 209.6-22.24 209.65-21.78 209.7-21.26 209.75-20.75 209.82-20.29 209.89-19.82 209.94-19.63L209.94-19.63Q209.94-18.75 210.23-18.26L210.23-18.26Q210.48-17.04 210.65-15.82 210.82-14.6 210.97-13.33L210.97-13.33Q211.06-12.7 211.09-12.11 211.11-11.52 211.21-10.89L211.21-10.89Q211.26-10.64 211.33-10.4 211.41-10.16 211.45-9.91L211.45-9.91Q211.55-9.42 211.6-8.98 211.65-8.54 211.75-8.11L211.75-8.11Q211.8-7.86 211.89-7.59 211.99-7.32 211.89-7.03L211.89-7.03Q211.99-6.69 211.97-6.3 211.94-5.91 212.14-5.62L212.14-5.62Q212.14-4.59 212.28-3.81L212.28-3.81Q212.33-3.22 212.58-2.64L212.58-2.64Q212.68-2.05 212.75-1.42 212.82-0.78 212.92-0.15ZM224.54-12.79L224.54-12.79Q224.64-12.55 225.25-11.77 225.86-10.99 226.64-10.06 227.42-9.13 228.13-8.28 228.83-7.42 229.13-7.03L229.13-7.03Q229.67-6.35 230.18-5.69 230.69-5.03 231.13-4.3L231.13-4.3 232.01-2.83Q232.4-2.34 232.72-2 233.03-1.66 233.23-1.07L233.23-1.07Q233.33-0.68 233.33-0.54L233.33-0.54Q233.33-0.2 233.08-0.05L233.08-0.05Q232.69-0.05 232.67 0.07 232.64 0.2 232.45 0.29L232.45 0.29Q232.25 0.39 231.84 0.42 231.42 0.44 231.18 0.44L231.18 0.44Q230.74 0.44 230.08 0.42 229.42 0.39 229.03 0.54L229.03 0.54Q228.93 0.59 228.74 0.68 228.54 0.78 228.44 0.78L228.44 0.78Q228.05 0.78 227.88 0.66 227.71 0.54 227.42 0.49L227.42 0.49Q227.03 0.05 226.76-0.42 226.49-0.88 226.15-1.37L226.15-1.37Q225.81-1.71 225.47-1.98 225.12-2.25 224.88-2.59L224.88-2.59Q224.15-3.66 223.37-4.69 222.58-5.71 221.75-6.69L221.75-6.69Q221.36-7.23 220.92-7.67 220.49-8.11 220.09-8.64L220.09-8.64Q219.7-9.13 219.36-9.69 219.02-10.25 218.68-10.79L218.68-10.79Q218.39-11.23 217.9-11.94 217.41-12.65 216.82-13.35 216.24-14.06 215.65-14.7 215.07-15.33 214.67-15.67L214.67-15.67Q214.63-15.97 214.43-16.14 214.24-16.31 213.99-16.46L213.99-16.46Q213.89-16.7 213.77-16.92 213.65-17.14 213.65-17.38L213.65-17.38Q213.65-17.72 213.8-18.02L213.8-18.02Q213.89-18.21 213.92-18.38 213.94-18.55 214.04-18.75L214.04-18.75Q214.28-19.29 214.7-19.8 215.11-20.31 215.36-20.9L215.36-20.9Q215.46-21.04 215.46-21.22 215.46-21.39 215.55-21.53L215.55-21.53Q215.65-21.92 215.97-22.19 216.29-22.46 216.48-22.8L216.48-22.8Q216.73-23.19 216.95-23.61 217.17-24.02 217.41-24.51L217.41-24.51Q218.14-25.73 218.95-26.88 219.75-28.03 220.58-29.2L220.58-29.2Q221.22-30.18 221.83-31.08 222.44-31.98 223.07-32.91L223.07-32.91Q223.42-33.35 223.81-33.94 224.2-34.52 224.66-35.11 225.12-35.69 225.61-36.18 226.1-36.67 226.59-36.96L226.59-36.96Q227.32-37.01 227.57-36.65 227.81-36.28 228.3-36.28L228.3-36.28Q228.93-36.13 229.13-35.89 229.32-35.64 229.57-35.4L229.57-35.4Q230.25-35.4 230.67-35.16 231.08-34.91 231.47-34.42L231.47-34.42Q231.33-33.89 231.03-33.47 230.74-33.06 230.5-32.62L230.5-32.62Q230.1-32.42 229.93-32.08 229.76-31.74 229.42-31.54L229.42-31.54Q228.93-30.71 228.4-29.96 227.86-29.2 227.32-28.47L227.32-28.47Q227.03-28.03 226.71-27.69 226.39-27.34 226.15-26.95L226.15-26.95Q226.05-26.81 225.98-26.64 225.91-26.46 225.81-26.32L225.81-26.32Q225.22-25.39 224.54-24.58 223.85-23.78 223.27-22.8L223.27-22.8Q223.07-22.46 222.95-22.09 222.83-21.73 222.63-21.39L222.63-21.39Q222.44-21.09 222.07-20.61 221.71-20.12 221.36-19.56 221.02-18.99 220.75-18.48 220.49-17.97 220.49-17.63L220.49-17.63Q220.53-17.38 221.1-16.67 221.66-15.97 222.37-15.16 223.07-14.36 223.71-13.65 224.34-12.94 224.54-12.79ZM227.76-21.68L227.76-21.68Q228.1-20.95 228.49-20.41L228.49-20.41Q228.64-20.21 228.83-20.07 229.03-19.92 229.13-19.68L229.13-19.68Q229.23-19.58 229.32-19.26 229.42-18.95 229.52-18.8L229.52-18.8Q229.67-18.41 230.1-17.92 230.54-17.43 230.54-17.04L230.54-17.04Q230.54-16.8 230.45-16.5 230.35-16.21 230.3-15.97L230.3-15.97Q230.25-15.67 230.25-15.36 230.25-15.04 230.06-14.79L230.06-14.79Q229.81-14.55 229.52-14.5 229.23-14.45 228.98-14.26L228.98-14.26Q228.88-14.16 228.69-13.92 228.49-13.67 228.3-13.38 228.1-13.09 227.93-12.82 227.76-12.55 227.76-12.4L227.76-12.4Q227.17-12.35 227-12.38 226.83-12.4 226.64-12.35L226.64-12.35Q226.39-12.6 226.12-12.77 225.86-12.94 225.47-13.09L225.47-13.09Q225.37-13.48 225.03-13.99 224.68-14.5 224.44-14.84L224.44-14.84 224.1-15.28Q223.37-16.31 222.76-17.26 222.15-18.21 221.85-19.38L221.85-19.38Q222.78-20.07 223.29-20.41 223.81-20.75 224.39-21.04 224.98-21.34 225.54-21.61 226.1-21.88 226.59-22.27L226.59-22.27Q226.98-22.27 227.13-22.22 227.27-22.17 227.32-22.12 227.37-22.07 227.44-21.95 227.52-21.83 227.76-21.68ZM254.66-8.35L254.66-8.35Q255-7.91 255.08-7.64 255.15-7.37 255.25-7.1 255.35-6.84 255.42-6.59 255.49-6.35 255.49-6.3L255.49-6.3Q255.49-5.96 255.37-5.74 255.25-5.52 255-5.18L255-5.18Q253.05-4.44 251.15-3.74 249.24-3.03 247.24-2.34L247.24-2.34Q246.7-2.2 246.26-2.03 245.82-1.86 245.29-1.76L245.29-1.76Q245.19-1.66 244.97-1.59 244.75-1.51 244.46-1.42 244.16-1.32 243.9-1.25 243.63-1.17 243.53-1.17L243.53-1.17Q243.14-1.07 242.68-1.1 242.21-1.12 241.77-1.07L241.77-1.07Q241.53-1.03 241.43-0.83 241.33-0.63 241.21-0.42 241.09-0.2 240.84-0.02 240.6 0.15 240.16 0.15L240.16 0.15Q239.72 0.15 239.28 0.1 238.84 0.05 238.35-0.15L238.35-0.15Q238.26-0.29 238.28-0.51 238.31-0.73 238.21-0.88L238.21-0.88Q237.77-0.93 237.52-0.81 237.28-0.68 237.04-0.63L237.04-0.63Q236.89-0.83 236.82-1.1 236.74-1.37 236.55-1.56L236.55-1.56Q236.5-1.81 236.5-2.05 236.5-2.29 236.5-2.54L236.5-2.54Q236.5-2.88 236.52-3.34 236.55-3.81 236.69-4.05L236.69-4.05Q236.84-6.84 236.84-9.62 236.84-12.4 236.84-15.19L236.84-15.19Q236.84-15.48 236.84-15.94 236.84-16.41 236.82-16.89 236.79-17.38 236.77-17.8 236.74-18.21 236.69-18.41L236.69-18.41Q236.74-18.75 236.74-19.07 236.74-19.38 236.74-19.73L236.74-19.73Q236.74-20.02 236.74-20.26 236.74-20.51 236.64-20.75L236.64-20.75Q236.69-20.95 236.69-21.29L236.69-21.29Q236.69-21.53 236.64-21.78 236.6-22.02 236.6-22.27L236.6-22.27Q236.6-22.66 236.62-23.02 236.64-23.39 236.64-23.78L236.64-23.78Q236.64-25.05 236.52-26.29 236.4-27.54 236.4-28.81L236.4-28.81Q236.4-30.47 236.38-32.13 236.35-33.79 236.3-35.45L236.3-35.45Q236.5-35.94 236.5-36.28L236.5-36.28Q237.18-36.62 237.57-36.52 237.96-36.43 238.35-36.43L238.35-36.43Q238.6-36.43 238.79-36.47 238.99-36.52 239.18-36.62L239.18-36.62Q239.43-36.57 239.6-36.5 239.77-36.43 240.01-36.43L240.01-36.43Q240.75-36.57 240.82-36.47 240.89-36.38 241.04-36.28L241.04-36.28Q241.23-36.33 241.36-36.45 241.48-36.57 241.67-36.57L241.67-36.57Q241.97-36.57 242.11-36.21 242.26-35.84 242.46-35.6L242.46-35.6Q242.46-35.06 242.65-34.62L242.65-34.62Q242.75-32.62 242.72-30.66 242.7-28.71 242.85-26.76L242.85-26.76Q242.89-25.88 242.97-24.93 243.04-23.97 243.04-23.1L243.04-23.1Q243.04-21.63 243.07-20.14 243.09-18.65 243.09-17.14L243.09-17.14Q243.09-16.89 243.11-16.7 243.14-16.5 243.14-16.26L243.14-16.26Q243.14-15.67 243.09-15.14 243.04-14.6 243.04-14.06L243.04-14.06 243.04-10.25Q243.04-9.77 243.02-9.25 242.99-8.74 243.04-8.25L243.04-8.25 243.24-7.67Q243.77-7.86 244.34-8.08 244.9-8.3 245.53-8.4L245.53-8.4Q245.92-8.5 246.26-8.59 246.61-8.69 247-8.79L247-8.79Q247.68-9.18 248.07-9.33 248.46-9.47 248.85-9.62L248.85-9.62Q249.68-9.91 250.46-10.23 251.24-10.55 252.07-10.84L252.07-10.84Q252.47-10.74 252.71-10.94L252.71-10.94Q253.2-10.84 253.59-10.84L253.59-10.84Q254.13-10.3 254.25-10.01 254.37-9.72 254.61-9.47L254.61-9.47Q254.52-9.23 254.64-9.18 254.76-9.13 254.81-8.94L254.81-8.94Q255-8.84 254.86-8.67 254.71-8.5 254.66-8.35ZM276.58-8.35L276.58-8.35Q276.93-7.91 277-7.64 277.07-7.37 277.17-7.1 277.27-6.84 277.34-6.59 277.41-6.35 277.41-6.3L277.41-6.3Q277.41-5.96 277.29-5.74 277.17-5.52 276.93-5.18L276.93-5.18Q274.97-4.44 273.07-3.74 271.16-3.03 269.16-2.34L269.16-2.34Q268.62-2.2 268.19-2.03 267.75-1.86 267.21-1.76L267.21-1.76Q267.11-1.66 266.89-1.59 266.67-1.51 266.38-1.42 266.09-1.32 265.82-1.25 265.55-1.17 265.45-1.17L265.45-1.17Q265.06-1.07 264.6-1.1 264.13-1.12 263.69-1.07L263.69-1.07Q263.45-1.03 263.35-0.83 263.25-0.63 263.13-0.42 263.01-0.2 262.77-0.02 262.52 0.15 262.08 0.15L262.08 0.15Q261.64 0.15 261.2 0.1 260.76 0.05 260.28-0.15L260.28-0.15Q260.18-0.29 260.2-0.51 260.23-0.73 260.13-0.88L260.13-0.88Q259.69-0.93 259.45-0.81 259.2-0.68 258.96-0.63L258.96-0.63Q258.81-0.83 258.74-1.1 258.66-1.37 258.47-1.56L258.47-1.56Q258.42-1.81 258.42-2.05 258.42-2.29 258.42-2.54L258.42-2.54Q258.42-2.88 258.44-3.34 258.47-3.81 258.62-4.05L258.62-4.05Q258.76-6.84 258.76-9.62 258.76-12.4 258.76-15.19L258.76-15.19Q258.76-15.48 258.76-15.94 258.76-16.41 258.74-16.89 258.71-17.38 258.69-17.8 258.66-18.21 258.62-18.41L258.62-18.41Q258.66-18.75 258.66-19.07 258.66-19.38 258.66-19.73L258.66-19.73Q258.66-20.02 258.66-20.26 258.66-20.51 258.57-20.75L258.57-20.75Q258.62-20.95 258.62-21.29L258.62-21.29Q258.62-21.53 258.57-21.78 258.52-22.02 258.52-22.27L258.52-22.27Q258.52-22.66 258.54-23.02 258.57-23.39 258.57-23.78L258.57-23.78Q258.57-25.05 258.44-26.29 258.32-27.54 258.32-28.81L258.32-28.81Q258.32-30.47 258.3-32.13 258.27-33.79 258.22-35.45L258.22-35.45Q258.42-35.94 258.42-36.28L258.42-36.28Q259.1-36.62 259.49-36.52 259.88-36.43 260.28-36.43L260.28-36.43Q260.52-36.43 260.71-36.47 260.91-36.52 261.11-36.62L261.11-36.62Q261.35-36.57 261.52-36.5 261.69-36.43 261.94-36.43L261.94-36.43Q262.67-36.57 262.74-36.47 262.81-36.38 262.96-36.28L262.96-36.28Q263.16-36.33 263.28-36.45 263.4-36.57 263.6-36.57L263.6-36.57Q263.89-36.57 264.04-36.21 264.18-35.84 264.38-35.6L264.38-35.6Q264.38-35.06 264.57-34.62L264.57-34.62Q264.67-32.62 264.65-30.66 264.62-28.71 264.77-26.76L264.77-26.76Q264.82-25.88 264.89-24.93 264.96-23.97 264.96-23.1L264.96-23.1Q264.96-21.63 264.99-20.14 265.01-18.65 265.01-17.14L265.01-17.14Q265.01-16.89 265.04-16.7 265.06-16.5 265.06-16.26L265.06-16.26Q265.06-15.67 265.01-15.14 264.96-14.6 264.96-14.06L264.96-14.06 264.96-10.25Q264.96-9.77 264.94-9.25 264.91-8.74 264.96-8.25L264.96-8.25 265.16-7.67Q265.7-7.86 266.26-8.08 266.82-8.3 267.45-8.4L267.45-8.4Q267.84-8.5 268.19-8.59 268.53-8.69 268.92-8.79L268.92-8.79Q269.6-9.18 269.99-9.33 270.38-9.47 270.77-9.62L270.77-9.62Q271.6-9.91 272.38-10.23 273.17-10.55 274-10.84L274-10.84Q274.39-10.74 274.63-10.94L274.63-10.94Q275.12-10.84 275.51-10.84L275.51-10.84Q276.05-10.3 276.17-10.01 276.29-9.72 276.54-9.47L276.54-9.47Q276.44-9.23 276.56-9.18 276.68-9.13 276.73-8.94L276.73-8.94Q276.93-8.84 276.78-8.67 276.63-8.5 276.58-8.35ZM303.63-19.38L303.63-19.38Q303.53-19.19 303.44-19.02 303.34-18.85 303.29-18.65L303.29-18.65Q303.49-18.46 303.66-18.24 303.83-18.02 303.83-17.77L303.83-17.77Q303.83-17.58 303.75-17.41 303.68-17.24 303.73-17.09L303.73-17.09Q303.53-16.75 303.31-16.46 303.1-16.16 303-15.82L303-15.82Q302.8-15.63 302.68-15.43 302.56-15.23 302.46-15.04L302.46-15.04Q302.22-14.94 302.14-14.72 302.07-14.5 301.87-14.36L301.87-14.36Q301.83-14.16 301.39-13.43 300.95-12.7 300.41-11.87 299.87-11.04 299.38-10.25 298.9-9.47 298.7-9.23L298.7-9.23Q298.6-8.98 298.48-8.84 298.36-8.69 298.21-8.5L298.21-8.5Q298.11-8.35 298.07-8.18 298.02-8.01 297.92-7.91L297.92-7.91Q297.82-7.71 297.7-7.57 297.58-7.42 297.48-7.18L297.48-7.18Q296.99-6.54 296.5-5.66 296.01-4.79 295.58-4.1L295.58-4.1Q295.33-3.71 295.11-3.32 294.89-2.93 294.65-2.54L294.65-2.54Q294.4-2.15 294.16-1.81 293.92-1.46 293.67-1.07L293.67-1.07Q293.28-0.78 292.99-0.37 292.69 0.05 292.3 0.34L292.3 0.34Q291.67 0.34 291.52-0.24L291.52-0.24Q290.89-0.39 290.89-0.24 290.89-0.1 290.89 0L290.89 0Q290.69 0.1 290.62 0.29 290.55 0.49 290.35 0.59L290.35 0.59Q289.96 0.49 289.69 0.27 289.42 0.05 288.93 0.1L288.93 0.1Q288.74-0.2 288.5-0.42 288.25-0.63 288.06-0.88L288.06-0.88Q287.96-1.17 287.79-1.37 287.62-1.56 287.47-1.76L287.47-1.76Q287.32-2 287.18-2.2 287.03-2.39 286.88-2.59L286.88-2.59Q286.54-3.03 286.22-3.44 285.91-3.86 285.66-4.3L285.66-4.3Q285.27-4.88 284.91-5.49 284.54-6.1 284.15-6.69L284.15-6.69Q283.95-6.98 283.76-7.28 283.56-7.57 283.42-7.86L283.42-7.86Q283.32-8.11 283.15-8.45 282.98-8.79 282.73-8.89L282.73-8.89Q282.64-9.28 282.39-9.47 282.15-9.67 281.9-9.96L281.9-9.96Q281.56-10.35 281.27-10.82 280.98-11.28 280.68-11.77L280.68-11.77Q279.71-13.13 278.85-14.45 278-15.77 277.17-17.19L277.17-17.19Q277.41-17.97 277.41-18.36 277.41-18.75 277.66-18.99L277.66-18.99Q277.66-19.19 277.75-19.58L277.75-19.58Q278.39-20.65 278.97-21.53L278.97-21.53Q279.51-22.36 279.73-22.9 279.95-23.44 280.19-24.02L280.19-24.02Q280.44-24.17 280.59-24.39 280.73-24.61 280.98-24.8L280.98-24.8Q281.07-25.34 281.42-25.71 281.76-26.07 281.85-26.61L281.85-26.61Q282.29-26.95 282.34-27.39L282.34-27.39Q282.98-27.83 283.12-28.56L283.12-28.56Q283.51-28.96 283.78-29.44 284.05-29.93 284.3-30.47L284.3-30.47Q284.88-30.96 285.22-31.74L285.22-31.74Q285.52-31.93 285.66-32.28 285.81-32.62 286.05-32.86L286.05-32.86Q286.44-33.5 286.66-33.91 286.88-34.33 287.13-34.77L287.13-34.77Q287.47-34.77 287.57-35.01 287.67-35.25 287.96-35.21L287.96-35.21Q287.96-35.64 288.2-35.99L288.2-35.99Q288.3-36.04 288.5-36.11 288.69-36.18 288.69-36.28L288.69-36.28Q288.59-36.87 288.74-36.96 288.89-37.06 288.98-37.16L288.98-37.16Q289.52-37.06 289.72-37.01 289.91-36.96 290.35-36.67L290.35-36.67Q290.84-36.67 291.03-36.47 291.23-36.28 291.47-36.18L291.47-36.18Q291.67-35.99 291.79-35.79 291.91-35.6 292.16-35.5L292.16-35.5Q292.55-34.96 292.99-34.33 293.43-33.69 293.82-33.15L293.82-33.15Q294.35-32.42 294.92-31.76 295.48-31.1 295.97-30.32L295.97-30.32Q296.11-30.08 296.5-29.47 296.89-28.86 297.38-28.17 297.87-27.49 298.26-26.93 298.65-26.37 298.8-26.27L298.8-26.27Q298.94-26.03 299.43-25.34 299.92-24.66 300.48-23.9 301.04-23.14 301.58-22.46 302.12-21.78 302.31-21.58L302.31-21.58Q302.85-20.85 303.12-20.39 303.39-19.92 303.63-19.38ZM292.45-10.21L292.45-10.21Q292.99-10.94 293.28-11.52 293.57-12.11 293.87-12.7L293.87-12.7Q294.35-13.28 294.45-13.53 294.55-13.77 294.7-14.01L294.7-14.01Q295.09-14.6 295.5-15.19 295.92-15.77 296.16-16.46L296.16-16.46Q296.45-16.65 296.6-16.94 296.75-17.24 297.04-17.48L297.04-17.48Q296.75-18.51 296.36-19.07 295.97-19.63 295.58-20.17L295.58-20.17Q295.43-20.41 295.28-20.65 295.14-20.9 294.99-21.14L294.99-21.14Q294.79-21.29 294.67-21.44 294.55-21.58 294.4-21.73L294.4-21.73Q294.31-21.97 294.11-22.36L294.11-22.36Q293.92-22.61 293.72-22.8 293.52-23 293.38-23.29L293.38-23.29Q293.18-23.49 292.89-23.83 292.6-24.17 292.28-24.58 291.96-25 291.72-25.37 291.47-25.73 291.33-25.98L291.33-25.98Q291.23-26.22 291.16-26.39 291.08-26.56 290.99-26.76L290.99-26.76Q290.74-27.1 290.5-27.37 290.25-27.64 290.01-27.98L290.01-27.98Q289.86-27.88 289.74-27.86 289.62-27.83 289.52-27.73L289.52-27.73Q289.18-27.1 288.76-26.56 288.35-26.03 287.96-25.39L287.96-25.39Q287.62-24.8 287.27-24.19 286.93-23.58 286.59-23L286.59-23Q286.35-22.66 286.13-22.34 285.91-22.02 285.66-21.63L285.66-21.63Q285.42-21.29 285.25-20.92 285.08-20.56 284.83-20.21L284.83-20.21Q284.44-19.73 284.2-19.34 283.95-18.95 283.71-18.41L283.71-18.41Q283.86-18.12 284.17-17.6 284.49-17.09 284.83-16.58 285.18-16.06 285.44-15.63 285.71-15.19 285.76-15.04L285.76-15.04Q286.15-14.7 286.4-14.28 286.64-13.87 287.03-13.48L287.03-13.48Q287.23-13.09 287.47-12.79 287.71-12.5 287.96-12.16L287.96-12.16Q288.2-11.82 288.59-11.16 288.98-10.5 289.37-9.81 289.76-9.13 290.16-8.54 290.55-7.96 290.79-7.81L290.79-7.81Q291.28-8.35 291.6-9.01 291.91-9.67 292.45-10.21Z" opacity="1" transform="matrix(1,0,0,1,0,0)" fill="#dedede" class="wordmark-text-0" data-fill-palette-color="quaternary" id="text-0"></path></svg></g></svg></g><g transform="matrix(1,0,0,1,0,47.40264215799615)"><svg viewBox="0 0 316.72104 25.236686413641618" height="25.236686413641618" width="316.72104"><g transform="matrix(1,0,0,1,0,0)"><svg width="316.72104" viewBox="4.95 -36.35 619.3399999999999 49.35" height="25.236686413641618" data-palette-color="#dedede"><path d="M4.95 0L4.95-34.2 26.85-34.2 26.85-31.35 8-31.35 8-19.1 22.35-19.1 22.35-16.25 8-16.25 8 0 4.95 0ZM50.06-25.5Q51.56-25.5 53.06-25.05L53.06-25.05 53.06-22.25Q51.61-22.6 50.16-22.6L50.16-22.6Q47.61-22.6 46.01-21.35L46.01-21.35Q44.41-20.1 43.16-17.8L43.16-17.8 43.16 0 40.16 0 40.16-17.5Q40.16-21.45 38.06-23.3L38.06-23.3 40.06-25.3Q40.96-24.75 41.76-23.65 42.56-22.55 42.91-21.2L42.91-21.2Q44.31-23.5 45.71-24.35L45.71-24.35Q47.46-25.5 50.06-25.5L50.06-25.5ZM77.11 0.5Q73.56 0.5 70.79-1.15 68.01-2.8 66.46-5.75 64.91-8.7 64.91-12.45L64.91-12.45Q64.91-16.2 66.49-19.18 68.06-22.15 70.84-23.83 73.61-25.5 77.16-25.5L77.16-25.5Q80.66-25.5 83.44-23.83 86.21-22.15 87.79-19.2 89.36-16.25 89.36-12.5L89.36-12.5Q89.36-8.75 87.79-5.8 86.21-2.85 83.44-1.18 80.66 0.5 77.11 0.5L77.11 0.5ZM77.16-2.2Q81.31-2.2 83.84-5.05 86.36-7.9 86.36-12.5L86.36-12.5Q86.36-15.55 85.21-17.88 84.06-20.2 81.96-21.5 79.86-22.8 77.16-22.8L77.16-22.8Q74.41-22.8 72.31-21.5 70.21-20.2 69.06-17.82 67.91-15.45 67.91-12.45L67.91-12.45Q67.91-9.45 69.06-7.13 70.21-4.8 72.31-3.5 74.41-2.2 77.16-2.2L77.16-2.2ZM104.77-17.65Q104.77-21.5 102.72-23.55L102.72-23.55 104.62-25.4Q106.82-23.85 107.42-20.9L107.42-20.9Q109.07-23.25 111.12-24.38 113.17-25.5 116.07-25.5L116.07-25.5Q119.97-25.5 122.14-23.4 124.32-21.3 124.27-17.35L124.27-17.35 124.12 0 121.22 0 121.27-16.8Q121.27-22.8 115.82-22.8L115.82-22.8Q113.27-22.8 111.49-21.58 109.72-20.35 107.77-17.7L107.77-17.7 107.77 0 104.77 0 104.77-17.65ZM147.87 0.7Q144.27 0.7 142.5-1.2 140.72-3.1 140.72-7.2L140.72-7.2 140.72-31.25 143.72-31.25 143.72-25 151.57-25 151.57-22.3 143.72-22.3 143.72-7.2Q143.72-4.05 144.9-3.03 146.07-2 147.82-2L147.82-2Q148.87-2 149.57-2.13 150.27-2.25 151.12-2.75L151.12-2.75 152.47-0.45Q150.62 0.7 147.87 0.7L147.87 0.7ZM166.93-13.9L166.93-16.7 181.78-16.7 181.78-13.9 166.93-13.9ZM200.13-11.45Q200.18-7.95 201.83-5.05 203.48-2.15 208.43-2.15L208.43-2.15Q210.58-2.15 212.41-2.7 214.23-3.25 216.38-4.5L216.38-4.5 217.68-2.4Q215.68-1.05 213.23-0.25 210.78 0.55 208.23 0.55L208.23 0.55Q202.98 0.55 200.06-2.83 197.13-6.2 197.13-11.7L197.13-11.7Q197.13-15.25 198.43-18.38 199.73-21.5 202.28-23.45 204.83-25.4 208.28-25.4L208.28-25.4Q211.18-25.4 213.56-24.03 215.93-22.65 217.31-20.28 218.68-17.9 218.68-15L218.68-15Q218.68-14.2 218.63-13.58 218.58-12.95 218.53-12.5L218.53-12.5 218.43-11.45 200.13-11.45ZM200.28-14.15L215.63-14.15Q215.68-14.5 215.68-15.15L215.68-15.15Q215.68-17.25 214.68-18.98 213.68-20.7 211.98-21.7 210.28-22.7 208.23-22.7L208.23-22.7Q205.18-22.7 203.01-20.48 200.83-18.25 200.28-14.15L200.28-14.15ZM234.34-17.65Q234.34-21.5 232.29-23.55L232.29-23.55 234.19-25.4Q236.39-23.85 236.99-20.9L236.99-20.9Q238.64-23.25 240.69-24.38 242.74-25.5 245.64-25.5L245.64-25.5Q249.54-25.5 251.71-23.4 253.89-21.3 253.84-17.35L253.84-17.35 253.69 0 250.79 0 250.84-16.8Q250.84-22.8 245.39-22.8L245.39-22.8Q242.84-22.8 241.06-21.58 239.29-20.35 237.34-17.7L237.34-17.7 237.34 0 234.34 0 234.34-17.65ZM279.49 0.5Q276.14 0.5 273.74-1.23 271.34-2.95 270.09-5.88 268.84-8.8 268.84-12.3L268.84-12.3Q268.84-16.1 270.27-19.07 271.69-22.05 274.44-23.73 277.19-25.4 280.99-25.4L280.99-25.4Q282.14-25.4 283.92-25.28 285.69-25.15 287.04-24.95L287.04-24.95 287.04-36.35 289.79-36.35 289.79-7.2Q289.79-3.35 291.74-1.25L291.74-1.25 290.04 0.4Q288.09-1.05 287.39-3.9L287.39-3.9Q286.24-1.65 284.12-0.58 281.99 0.5 279.49 0.5L279.49 0.5ZM279.64-2.1Q281.89-2.1 283.67-3.2 285.44-4.3 286.34-6.2L286.34-6.2Q287.04-7.6 287.04-9.4L287.04-9.4 287.04-22.3Q284.29-22.65 283.07-22.73 281.84-22.8 280.54-22.8L280.54-22.8Q277.79-22.8 275.79-21.45 273.79-20.1 272.74-17.73 271.69-15.35 271.69-12.45L271.69-12.45Q271.69-8.1 273.79-5.1 275.89-2.1 279.64-2.1L279.64-2.1ZM344.85-34.45Q349.55-34.15 353.15-31.88 356.75-29.6 358.73-25.75 360.7-21.9 360.7-17.05L360.7-17.05Q360.7-11.9 358.55-7.9 356.4-3.9 352.5-1.7 348.6 0.5 343.6 0.5L343.6 0.5 340.75 0.5Q340.35 0.5 339.03 0.5 337.7 0.5 334.05 0.2L334.05 0.2 331.7 0 331.7-34.5 344.85-34.45ZM341.7-2.25Q349.4-2.25 353.55-6.05 357.7-9.85 357.7-16.9L357.7-16.9Q357.7-23.5 354.15-27.4 350.6-31.3 344.35-31.65L344.35-31.65 334.7-31.65 334.7-2.5 336.55-2.4Q341.5-2.25 341.7-2.25L341.7-2.25ZM378.06-11.45Q378.11-7.95 379.76-5.05 381.41-2.15 386.36-2.15L386.36-2.15Q388.51-2.15 390.33-2.7 392.16-3.25 394.31-4.5L394.31-4.5 395.61-2.4Q393.61-1.05 391.16-0.25 388.71 0.55 386.16 0.55L386.16 0.55Q380.91 0.55 377.98-2.83 375.06-6.2 375.06-11.7L375.06-11.7Q375.06-15.25 376.36-18.38 377.66-21.5 380.21-23.45 382.76-25.4 386.21-25.4L386.21-25.4Q389.11-25.4 391.48-24.03 393.86-22.65 395.23-20.28 396.61-17.9 396.61-15L396.61-15Q396.61-14.2 396.56-13.58 396.51-12.95 396.46-12.5L396.46-12.5 396.36-11.45 378.06-11.45ZM378.21-14.15L393.56-14.15Q393.61-14.5 393.61-15.15L393.61-15.15Q393.61-17.25 392.61-18.98 391.61-20.7 389.91-21.7 388.21-22.7 386.16-22.7L386.16-22.7Q383.11-22.7 380.93-20.48 378.76-18.25 378.21-14.15L378.21-14.15ZM411.21-20.75Q410.86-21.6 410.19-22.38 409.51-23.15 408.76-23.55L408.76-23.55 410.41-25.8Q412.96-24.25 414.36-20.4L414.36-20.4 420.66-3.85 428.46-24.95 431.46-24.95 422.16 0 419.06 0 411.21-20.75ZM446.97-11.45Q447.02-7.95 448.67-5.05 450.32-2.15 455.27-2.15L455.27-2.15Q457.42-2.15 459.24-2.7 461.07-3.25 463.22-4.5L463.22-4.5 464.52-2.4Q462.52-1.05 460.07-0.25 457.62 0.55 455.07 0.55L455.07 0.55Q449.82 0.55 446.89-2.83 443.97-6.2 443.97-11.7L443.97-11.7Q443.97-15.25 445.27-18.38 446.57-21.5 449.12-23.45 451.67-25.4 455.12-25.4L455.12-25.4Q458.02-25.4 460.39-24.03 462.77-22.65 464.14-20.28 465.52-17.9 465.52-15L465.52-15Q465.52-14.2 465.47-13.58 465.42-12.95 465.37-12.5L465.37-12.5 465.27-11.45 446.97-11.45ZM447.12-14.15L462.47-14.15Q462.52-14.5 462.52-15.15L462.52-15.15Q462.52-17.25 461.52-18.98 460.52-20.7 458.82-21.7 457.12-22.7 455.07-22.7L455.07-22.7Q452.02-22.7 449.84-20.48 447.67-18.25 447.12-14.15L447.12-14.15ZM480.92 0L480.92-36.3 483.92-36.3 483.92 0 480.92 0ZM511.78 0.5Q508.23 0.5 505.45-1.15 502.68-2.8 501.13-5.75 499.58-8.7 499.58-12.45L499.58-12.45Q499.58-16.2 501.15-19.18 502.73-22.15 505.5-23.83 508.28-25.5 511.83-25.5L511.83-25.5Q515.33-25.5 518.1-23.83 520.88-22.15 522.45-19.2 524.03-16.25 524.03-12.5L524.03-12.5Q524.03-8.75 522.45-5.8 520.88-2.85 518.1-1.18 515.33 0.5 511.78 0.5L511.78 0.5ZM511.83-2.2Q515.98-2.2 518.5-5.05 521.03-7.9 521.03-12.5L521.03-12.5Q521.03-15.55 519.88-17.88 518.73-20.2 516.63-21.5 514.53-22.8 511.83-22.8L511.83-22.8Q509.08-22.8 506.98-21.5 504.88-20.2 503.73-17.82 502.58-15.45 502.58-12.45L502.58-12.45Q502.58-9.45 503.73-7.13 504.88-4.8 506.98-3.5 509.08-2.2 511.83-2.2L511.83-2.2ZM549.73-25.4Q553.18-25.4 555.61-23.68 558.03-21.95 559.26-19.05 560.48-16.15 560.48-12.6L560.48-12.6Q560.48-8.75 559.03-5.8 557.58-2.85 554.83-1.18 552.08 0.5 548.28 0.5L548.28 0.5Q547.03 0.5 542.33-0.15L542.33-0.15 542.33 13 539.48 13 539.48-17.6Q539.48-21.55 537.38-23.4L537.38-23.4 539.38-25.4Q540.23-24.8 541.03-23.75 541.83-22.7 542.18-21.45L542.18-21.45Q544.33-25.4 549.73-25.4L549.73-25.4ZM548.03-2.2Q552.73-2.2 555.11-4.93 557.48-7.65 557.48-12.35L557.48-12.35Q557.48-16.8 555.46-19.75 553.43-22.7 549.83-22.7L549.83-22.7Q546.98-22.7 544.76-20.95 542.53-19.2 542.33-16.4L542.33-16.4 542.33-2.65Q546.93-2.2 548.03-2.2L548.03-2.2ZM577.19-11.45Q577.24-7.95 578.89-5.05 580.54-2.15 585.49-2.15L585.49-2.15Q587.64-2.15 589.46-2.7 591.29-3.25 593.44-4.5L593.44-4.5 594.74-2.4Q592.74-1.05 590.29-0.25 587.84 0.55 585.29 0.55L585.29 0.55Q580.04 0.55 577.11-2.83 574.19-6.2 574.19-11.7L574.19-11.7Q574.19-15.25 575.49-18.38 576.79-21.5 579.34-23.45 581.89-25.4 585.34-25.4L585.34-25.4Q588.24-25.4 590.61-24.03 592.99-22.65 594.36-20.28 595.74-17.9 595.74-15L595.74-15Q595.74-14.2 595.69-13.58 595.64-12.95 595.59-12.5L595.59-12.5 595.49-11.45 577.19-11.45ZM577.34-14.15L592.69-14.15Q592.74-14.5 592.74-15.15L592.74-15.15Q592.74-17.25 591.74-18.98 590.74-20.7 589.04-21.7 587.34-22.7 585.29-22.7L585.29-22.7Q582.24-22.7 580.06-20.48 577.89-18.25 577.34-14.15L577.34-14.15ZM621.29-25.5Q622.79-25.5 624.29-25.05L624.29-25.05 624.29-22.25Q622.84-22.6 621.39-22.6L621.39-22.6Q618.84-22.6 617.24-21.35L617.24-21.35Q615.64-20.1 614.39-17.8L614.39-17.8 614.39 0 611.39 0 611.39-17.5Q611.39-21.45 609.29-23.3L609.29-23.3 611.29-25.3Q612.19-24.75 612.99-23.65 613.79-22.55 614.14-21.2L614.14-21.2Q615.54-23.5 616.94-24.35L616.94-24.35Q618.69-25.5 621.29-25.5L621.29-25.5Z" opacity="1" transform="matrix(1,0,0,1,0,0)" fill="#dedede" class="slogan-text-1" data-fill-palette-color="quaternary" id="text-1"></path></svg></g></svg></g></svg></g></svg></g><g></g></svg></g><defs></defs></svg><rect width="356.12052" height="112.03880857163776" fill="none" stroke="none" visibility="hidden"></rect></g></svg></g></svg>