<?xml version="1.0" encoding="UTF-8"?>
<svg id="Camada_1" data-name="Camada 1" xmlns="http://www.w3.org/2000/svg" viewBox="0 0 996.1 283">
  <defs>
    <style>
      .cls-1, .cls-2, .cls-3 {
        fill: #fff;
      }

      .cls-2 {
        font-family: Voltaire, OZSHYR+Voltaire;
        font-size: 52.18px;
      }

      .cls-3 {
        stroke: #fff;
        stroke-miterlimit: 10;
        stroke-width: 6px;
      }
    </style>
  </defs>
  <text class="cls-2" transform="translate(464.12 88.28)"><tspan x="0" y="0">agência de</tspan><tspan x="0" y="70">inovação tecnológica</tspan><tspan x="0" y="140">e propriedade intelectual</tspan></text>
  <line class="cls-3" x1="442.1" y1="28.17" x2="442.1" y2="254.83"/>
  <g>
    <path class="cls-1" d="M126.38,127.6h-35.9c-6.27,0-11.71-1.1-16.29-3.3-4.59-2.2-8.37-5.04-11.33-8.52-2.96-3.48-5.17-7.3-6.62-11.47-1.45-4.17-2.18-8.23-2.18-12.17s.72-8.02,2.18-12.26c1.45-4.23,3.69-8.14,6.71-11.73,3.02-3.59,6.8-6.52,11.33-8.78,4.53-2.26,9.93-3.33,16.21-3.22h35.9v71.45ZM75.09,91.79c0,1.74.32,3.54.96,5.39.64,1.85,1.62,3.54,2.96,5.04,1.33,1.51,2.96,2.72,4.87,3.65,1.91.93,4.09,1.39,6.52,1.39h15.82v-30.77h-15.82c-2.43,0-4.61.49-6.52,1.48-1.91.99-3.51,2.2-4.78,3.65-1.28,1.45-2.26,3.07-2.96,4.87-.7,1.8-1.04,3.56-1.04,5.3Z"/>
    <path class="cls-1" d="M152.1,127.08V56.33h20.17v70.75h-20.17Z"/>
    <path class="cls-1" d="M195.22,56.16h5.22v-27.99h20.17v27.99h11.47v18.95h-11.47v16.86c0,4.98,1.05,8.78,3.17,11.39,2.11,2.61,4.94,3.91,8.48,3.91l-.35,21.03c-3.94,0-7.8-.73-11.56-2.17-3.77-1.45-7.13-3.65-10.08-6.61-2.96-2.96-5.33-6.72-7.13-11.3-1.8-4.58-2.69-10-2.69-16.25v-16.86h-5.22v-18.95Z"/>
    <path class="cls-1" d="M323.86,107.27v20.34h-35.81c-6.26,0-11.68-1.1-16.25-3.3-4.58-2.2-8.34-5.04-11.3-8.52-2.96-3.48-5.16-7.3-6.61-11.47-1.45-4.17-2.17-8.23-2.17-12.17s.72-8.02,2.17-12.26c1.45-4.23,3.68-8.14,6.69-11.73,3.01-3.59,6.78-6.52,11.3-8.78,4.52-2.26,9.91-3.33,16.17-3.22h35.81l-19.82,51.11h19.82ZM295.87,76.49h-7.82c-2.43,0-4.61.49-6.52,1.48-1.91.99-3.51,2.2-4.78,3.65-1.28,1.45-2.26,3.07-2.96,4.87-.7,1.8-1.04,3.56-1.04,5.3,0,3.13.98,6.2,2.96,9.21,1.97,3.02,4.81,4.98,8.52,5.91l11.65-30.42Z"/>
    <path class="cls-1" d="M409.73,127.6h-27.47c-6.26,0-11.68-1.1-16.25-3.3-4.58-2.2-8.34-5.04-11.3-8.52-2.96-3.48-5.16-7.3-6.61-11.47-1.45-4.17-2.17-8.23-2.17-12.17s.72-8.02,2.17-12.26c1.45-4.23,3.68-8.14,6.69-11.73,3.01-3.59,6.78-6.52,11.3-8.78,4.52-2.26,9.91-3.33,16.17-3.22h27.47v20.34h-27.47c-2.43,0-4.61.49-6.52,1.48-1.91.99-3.51,2.2-4.78,3.65-1.28,1.45-2.26,3.07-2.96,4.87-.7,1.8-1.04,3.56-1.04,5.3s.32,3.54.96,5.39c.64,1.85,1.62,3.54,2.96,5.04,1.33,1.51,2.96,2.72,4.87,3.65,1.91.93,4.09,1.39,6.52,1.39h27.47v20.34Z"/>
  </g>
  <g>
    <path class="cls-1" d="M131.69,152.14v38.26c0,6.68-1.24,12.47-3.71,17.36-2.47,4.89-5.59,8.91-9.36,12.07-3.77,3.16-7.9,5.51-12.41,7.06-4.51,1.55-8.86,2.32-13.06,2.32s-8.62-.77-13.25-2.32c-4.63-1.55-8.86-3.93-12.69-7.15-3.83-3.22-7.01-7.24-9.54-12.07-2.53-4.83-3.74-10.59-3.61-17.27v-38.26h21.54v38.26c0,2.6.56,4.92,1.68,6.96s2.52,3.75,4.2,5.11c1.68,1.36,3.52,2.41,5.51,3.16,1.99.74,3.92,1.11,5.79,1.11s3.82-.34,5.88-1.02c2.05-.68,3.92-1.73,5.6-3.16,1.68-1.42,3.08-3.16,4.2-5.2s1.68-4.36,1.68-6.96v-38.26h21.54Z"/>
    <path class="cls-1" d="M222.69,206.73v21.73h-38.26c-6.69,0-12.47-1.18-17.36-3.53-4.89-2.35-8.91-5.38-12.07-9.1-3.16-3.72-5.51-7.8-7.06-12.26-1.55-4.46-2.32-8.79-2.32-13s.77-8.57,2.32-13.09c1.55-4.52,3.93-8.7,7.15-12.54,3.22-3.84,7.24-6.97,12.07-9.38,4.83-2.41,10.59-3.56,17.27-3.43h38.26l-21.17,54.6h21.17ZM192.79,173.86h-8.36c-2.6,0-4.92.53-6.96,1.58-2.04,1.05-3.75,2.35-5.11,3.9-1.36,1.55-2.41,3.28-3.16,5.2-.74,1.92-1.11,3.81-1.11,5.66,0,3.34,1.05,6.63,3.16,9.84,2.1,3.22,5.14,5.32,9.1,6.31l12.44-32.5Z"/>
    <path class="cls-1" d="M236.61,227.91v-38.26c0-6.69,1.23-12.47,3.7-17.37,2.47-4.89,5.59-8.91,9.36-12.07s7.9-5.51,12.41-7.06c4.51-1.55,8.86-2.32,13.06-2.32s8.62.78,13.25,2.32c4.63,1.55,8.86,3.93,12.69,7.15,3.83,3.22,7.01,7.24,9.54,12.07,2.53,4.83,3.74,10.59,3.61,17.27v38.26h-21.54v-38.26c0-2.6-.56-4.92-1.68-6.97-1.12-2.04-2.52-3.74-4.2-5.11-1.68-1.36-3.52-2.42-5.51-3.16-1.99-.74-3.92-1.11-5.79-1.11s-3.83.34-5.88,1.02c-2.05.68-3.92,1.74-5.6,3.16-1.68,1.42-3.08,3.16-4.2,5.2-1.12,2.04-1.68,4.37-1.68,6.97v38.26h-21.54Z"/>
    <path class="cls-1" d="M328.35,151.39h38.26c6.69,0,12.47,1.18,17.37,3.53,4.89,2.35,8.91,5.39,12.07,9.1s5.51,7.8,7.06,12.26c1.55,4.46,2.32,8.79,2.32,13s-.77,8.57-2.32,13.09c-1.54,4.52-3.92,8.7-7.13,12.54-3.21,3.84-7.22,6.96-12.03,9.38-4.81,2.41-10.55,3.56-17.21,3.44h-16.84v27.11h-21.54v-103.44ZM382.95,189.65c0-1.86-.34-3.77-1.02-5.76-.68-1.98-1.72-3.77-3.14-5.39-1.42-1.61-3.14-2.91-5.17-3.9-2.03-.99-4.34-1.49-6.93-1.49h-16.8v32.87h16.8c2.58,0,4.9-.53,6.93-1.58,2.03-1.05,3.72-2.35,5.08-3.9,1.35-1.55,2.4-3.28,3.14-5.2.74-1.92,1.11-3.81,1.11-5.66Z"/>
  </g>
</svg>